<?xml version="1.0" standalone="no"?>
<!DOCTYPE svg PUBLIC "-//W3C//DTD SVG 20010904//EN"
 "http://www.w3.org/TR/2001/REC-SVG-20010904/DTD/svg10.dtd">
<svg version="1.0" xmlns="http://www.w3.org/2000/svg"
 width="1280.000000pt" height="1280.000000pt" viewBox="0 0 1280.000000 1280.000000"
 preserveAspectRatio="xMidYMid meet">

<g transform="translate(0.000000,1280.000000) scale(0.100000,-0.100000)"
fill="#000000" stroke="none">
<path d="M1309 11491 l-29 -29 0 -1376 0 -1375 24 -28 24 -28 1386 0 1385 0
23 23 23 23 0 1385 0 1386 -28 24 -28 24 -1375 0 -1376 0 -29 -29z m2415 -403
c14 -20 16 -132 16 -1005 0 -970 0 -983 -20 -1003 -20 -20 -33 -20 -1003 -20
-873 0 -985 2 -1005 16 l-22 15 0 994 c0 890 2 995 16 1009 14 14 119 16 1009
16 l994 0 15 -22z"/>
<path d="M2143 10690 c-12 -5 -26 -18 -32 -29 -8 -13 -11 -202 -11 -579 l0
-560 31 -26 31 -26 559 2 558 3 23 23 23 23 3 558 2 559 -26 31 -26 31 -556
-1 c-307 0 -567 -4 -579 -9z"/>
<path d="M4970 11315 l0 -205 -205 0 -205 0 0 -205 0 -205 205 0 205 0 -2
-202 -3 -203 -202 -3 -203 -2 0 -205 0 -205 410 0 410 0 0 -615 0 -615 203 2
202 3 3 613 2 612 205 0 204 0 0 -192 c0 -106 1 -199 1 -205 0 -10 50 -13 201
-15 l200 -3 0 -182 c0 -101 0 -192 -1 -203 0 -19 -7 -20 -200 -20 l-200 0 0
-615 0 -615 610 0 610 0 -2 -407 -3 -408 -200 0 -200 0 -3 203 -2 202 -610 0
-610 0 -2 -202 -3 -203 -202 -3 -203 -2 0 410 0 410 203 2 202 3 3 203 2 202
-1025 0 -1025 0 0 -205 0 -205 615 0 615 0 -2 -202 -3 -203 -817 -3 -818 -2 0
410 0 410 -1025 0 -1025 0 0 -410 0 -410 205 0 205 0 0 -205 0 -205 410 0 410
0 -2 -200 -3 -200 -405 -3 -405 -2 0 -205 0 -205 200 -3 200 -2 3 -815 2 -815
410 0 410 0 0 410 0 410 613 -2 612 -3 3 -202 2 -203 408 -2 407 -3 3 -202 2
-203 -205 0 -205 0 0 -410 0 -410 203 -2 202 -3 3 -202 2 -203 -205 0 -205 0
0 -1025 0 -1025 615 0 615 0 0 205 0 205 -412 0 -413 0 3 205 3 205 204 0 205
0 0 205 0 205 203 2 202 3 3 203 2 202 203 -2 202 -3 2 -610 3 -610 200 -3
200 -2 0 -205 0 -205 615 0 615 0 0 205 0 205 -410 0 -410 0 2 203 3 202 203
3 202 2 0 205 0 205 410 0 410 0 0 205 0 205 205 0 205 0 0 -205 0 -205 205 0
205 0 0 205 0 205 205 0 205 0 0 -410 0 -410 -820 0 -820 0 2 -202 3 -203
1228 -3 1227 -2 0 -205 0 -205 615 0 615 0 0 205 0 205 -205 0 -205 0 0 205 0
205 205 0 205 0 0 410 0 410 -410 0 -410 0 0 -205 0 -205 -205 0 -205 0 0
-205 0 -205 -205 0 -205 0 0 410 0 410 205 0 205 0 0 410 0 410 615 0 615 0 0
1025 0 1025 -612 -2 -613 -3 -3 -202 -2 -203 205 0 205 0 0 -207 0 -208 205 3
205 3 0 -411 0 -410 -410 0 -410 0 0 -205 0 -205 -205 0 -205 0 0 410 0 410
205 0 205 0 -2 202 -3 203 -818 3 -817 2 2 203 3 202 202 3 203 2 2 203 3 202
203 3 202 2 0 -204 0 -205 196 -3 c108 -2 200 -1 205 3 5 3 10 186 11 408 l3
403 200 2 200 1 0 205 0 205 -795 2 c-437 2 -805 0 -817 -3 -23 -6 -23 -7 -23
-208 l0 -201 -410 3 -410 2 0 -205 0 -205 205 0 205 0 0 -410 0 -410 -407 -2
-408 -3 -3 -203 -2 -202 -205 0 -205 0 0 205 0 205 205 0 205 0 0 410 0 410
-410 0 -411 0 1 195 c1 107 -1 199 -5 205 -4 6 -77 10 -193 9 -103 0 -191 0
-197 0 -6 1 -10 143 -10 406 l0 405 205 0 205 0 -3 -172 c-2 -95 -1 -187 3
-205 l6 -34 402 2 402 1 3 -201 2 -201 24 -6 c13 -3 104 -4 202 -2 l179 3 0
205 0 205 -202 0 -203 0 0 203 0 202 205 0 205 0 0 -205 0 -205 410 0 410 0 0
205 0 205 33 0 c17 1 110 0 205 0 l172 -1 0 206 0 205 205 0 205 0 2 -202 3
-203 203 -3 202 -2 0 412 0 413 202 0 203 0 3 203 2 202 -205 0 -205 0 -2
-202 -3 -203 -200 0 -200 0 -3 203 -2 202 -205 0 -205 0 0 -410 0 -410 -202 2
-203 3 -3 408 -2 407 -205 0 -205 0 0 410 0 410 -202 2 -203 3 -3 203 -2 202
205 0 205 0 0 410 0 410 -410 0 -410 0 0 -410 0 -410 -409 0 -409 0 -1 205 0
205 204 0 205 0 0 205 0 205 -204 0 -203 0 -1 -202 -1 -203 -201 0 -201 0 -2
407 -2 408 613 0 612 0 0 410 0 410 -205 0 -205 0 0 -205 0 -205 -610 0 -610
0 -2 -202 -3 -203 -202 -3 -203 -2 0 410 0 410 -205 0 -205 0 0 -205z m820
-1230 l0 -205 -205 0 -205 0 0 205 0 205 205 0 205 0 0 -205z m1222 -1227 l3
-203 203 -3 202 -2 0 205 0 205 208 0 207 0 -3 -410 -2 -410 205 0 205 0 0
-205 0 -205 -202 2 -203 3 -3 202 -2 203 -613 2 -612 3 -3 408 -2 407 205 0
205 0 2 -202z m-4502 -1233 l0 -205 -410 0 -410 0 0 205 0 205 410 0 410 0 0
-205z m5730 -410 l0 -205 -202 2 -203 3 -3 203 -2 202 205 0 205 0 0 -205z
m-4910 -609 l0 -404 26 -6 c15 -4 198 -6 408 -5 l381 1 3 -200 2 -201 -32 -3
c-18 -2 -387 -2 -820 0 l-788 2 0 203 0 202 202 0 203 0 3 408 2 407 205 0
205 0 0 -404z m1640 0 c0 -392 1 -404 20 -409 10 -3 102 -4 205 -3 l185 1 0
-202 0 -203 -205 0 -204 0 -3 -205 -3 -205 410 2 410 3 3 403 c2 311 5 402 15
402 87 4 379 0 387 -5 6 -4 9 -82 9 -198 l-1 -192 201 -3 201 -2 1 -178 c1
-97 2 -188 2 -202 l1 -25 -202 -3 -202 -2 0 -410 0 -410 405 0 405 0 0 -615 0
-615 -405 0 c-223 0 -405 3 -405 8 0 4 -1 95 -1 202 l-1 195 201 3 201 2 0
205 0 205 -405 0 -405 0 0 -410 0 -410 -205 0 -205 0 -2 408 -3 407 -202 3
-203 2 0 205 0 205 410 0 410 0 -2 203 -3 202 -407 3 -408 2 -2 203 -3 202
-202 3 -203 2 0 609 0 609 -82 7 c-46 3 -230 5 -411 3 l-327 -3 0 203 0 202
615 0 615 0 0 -404z m813 -6 c4 0 7 -90 7 -200 0 -110 -3 -200 -7 -200 -5 0
-96 -1 -203 -2 l-195 -1 -3 194 c-1 106 -1 198 1 204 4 8 137 10 400 5z m1227
-1425 l0 -205 -203 0 -203 0 -3 205 -2 205 205 0 206 0 0 -205z m822 -1435 l3
-820 -207 0 -208 0 0 -205 0 -205 -408 0 -409 0 1 203 1 202 408 3 407 2 0
820 0 820 205 0 205 0 2 -820z m1638 205 l0 -615 -615 0 -615 0 0 608 c0 335
3 612 7 615 3 4 280 7 615 7 l608 0 0 -615z m-4092 -1232 l2 -203 -207 0 -208
0 3 205 3 205 202 -2 202 -3 3 -202z m5732 -408 l0 -205 -205 0 -205 0 0 -205
0 -205 -205 0 -205 0 0 205 0 205 205 0 205 0 0 205 0 205 205 0 205 0 0 -205z"/>
<path d="M8657 4143 c-4 -3 -7 -96 -7 -205 l0 -198 205 0 205 0 0 205 0 205
-198 0 c-109 0 -202 -3 -205 -7z"/>
<path d="M7830 11315 l0 -205 205 0 205 0 0 205 0 205 -205 0 -205 0 0 -205z"/>
<path d="M8683 11496 l-28 -24 -3 -1371 c-2 -1501 -6 -1419 54 -1441 16 -6
545 -10 1390 -10 l1366 0 29 29 29 29 0 1377 0 1377 -29 29 -29 29 -1376 0
-1375 0 -28 -24z m2411 -402 c14 -14 16 -119 16 -1009 l0 -994 -22 -15 c-20
-14 -132 -16 -1005 -16 -970 0 -983 0 -1003 20 -20 20 -20 33 -20 1003 0 873
2 985 16 1005 l15 22 994 0 c890 0 995 -2 1009 -16z"/>
<path d="M9496 10669 l-26 -31 2 -559 3 -558 23 -23 23 -23 558 -3 559 -2 31
26 31 26 0 561 c-1 426 -4 566 -13 578 -29 38 -41 39 -610 39 l-555 0 -26 -31z"/>
<path d="M4560 9060 l0 -410 203 2 202 3 3 408 2 407 -205 0 -205 0 0 -410z"/>
<path d="M10702 8038 l3 -203 200 0 200 0 3 203 2 202 -205 0 -205 0 2 -202z"/>
<path d="M11110 7625 l0 -205 205 0 205 0 0 205 0 205 -205 0 -205 0 0 -205z"/>
<path d="M10292 7218 l3 -203 203 -3 202 -3 0 206 0 205 -205 0 -205 0 2 -202z"/>
<path d="M10704 6597 c-2 -7 -3 -100 -2 -207 l3 -195 408 -3 407 -2 0 210 0
210 -405 0 c-320 0 -407 -3 -411 -13z"/>
<path d="M1280 5380 l0 -820 205 0 205 0 0 820 0 820 -205 0 -205 0 0 -820z"/>
<path d="M3740 4765 l0 -205 205 0 205 0 -2 203 -3 202 -202 3 -203 2 0 -205z"/>
<path d="M1309 4121 l-29 -29 0 -1377 0 -1377 29 -29 29 -29 1376 0 1375 0 28
24 28 24 3 1371 c2 1501 6 1419 -54 1441 -16 6 -545 10 -1390 10 l-1366 0 -29
-29z m2411 -401 c20 -20 20 -33 20 -1003 0 -873 -2 -985 -16 -1005 l-15 -22
-994 0 c-890 0 -995 2 -1009 16 -14 14 -16 119 -16 1009 l0 994 22 15 c20 14
132 16 1005 16 970 0 983 0 1003 -20z"/>
<path d="M2131 3304 l-31 -26 0 -562 c0 -556 0 -563 21 -587 l21 -24 568 -3
568 -2 26 31 26 31 -2 559 -3 558 -23 23 -23 23 -558 3 -559 2 -31 -26z"/>
</g>
</svg>
